<?xml version="1.0" standalone="no"?><!DOCTYPE svg PUBLIC "-//W3C//DTD SVG 1.1//EN" "http://www.w3.org/Graphics/SVG/1.1/DTD/svg11.dtd"><svg t="1540457304379" class="icon" style="" viewBox="0 0 1024 1024" version="1.1" xmlns="http://www.w3.org/2000/svg" p-id="3410" xmlns:xlink="http://www.w3.org/1999/xlink" width="200" height="200"><defs><style type="text/css"></style></defs><path d="M798.69952 968.506368l52.590592 0c16.816128 0 30.445568-13.630464 30.445568-30.445568l-0.016384-0.119808c0 0 0-139.549696 0-164.921344 0-25.375744 0-251.107328 0-251.107328 0-18.214912 12.729344-31.31392 32.606208-33.042432l0.098304-0.028672c20.436992-1.835008 32.985088-14.76608 32.985088-32.985088 0-8.296448-3.06176-15.87712-8.119296-21.671936L528.402432 75.98592c0 0-11.93472-10.326016-23.750656 0L93.763584 434.184192c-5.057536 5.794816-8.119296 13.375488-8.119296 21.671936 0 18.219008 14.76608 32.985088 32.985088 32.985088 0 0 33.026048-1.180672 32.705536 33.071104 0 0 0 225.731584 0 251.107328 0 25.371648 0 164.921344 0 164.921344l-0.02048 0.119808c0 16.816128 13.63456 30.445568 30.449664 30.445568l229.994496 0c0 0 32.002048 0.049152 32.002048-36.104192L443.76064 816.832512c0 0-8.6016-60.332032 65.629184-63.632384 0 0 78.983168-7.169024 79.904768 63.632384l0 115.569664c0 36.154368 32.006144 36.104192 32.006144 36.104192l63.917056 0 92.913664-0.111616L798.69952 968.506368z" p-id="3411" fill="#ffffff" class="selected"></path></svg>